# AST/ASF file generated using VICON BodyLanguage
# -----------------------------------------------
:version 1.10
:name VICON
:units
  mass 1.0
  length 0.45
  angle deg
:documentation
   .ast/.asf automatically generated from VICON data using
   VICON BodyBuilder and BodyLanguage model FoxedUp or BRILLIANT.MOD
:root
   order TX TY TZ RX RY RZ
   axis XYZ
   position 0 0 0  
   orientation 0 0 0 
:bonedata
  begin
     id 1 
     name lhipjoint
     direction 0.63403 -0.759788 0.143974 
     length 2.51904 
     axis 0 0 0  XYZ
  end
  begin
     id 2 
     name lfemur
     direction 0.34202 -0.939693 0  
     length 7.42313  
     axis 0 0 20  XYZ
    dof rx ry rz
    limits (-160.0 20.0)
           (-70.0 70.0)
           (-60.0 70.0)
  end
  begin
     id 3 
     name ltibia
     direction 0.34202 -0.939693 0   
     length 8.10141   
     axis 0 0 20   XYZ
    dof rx
    limits (-10.0 170.0)
  end
  begin
     id 4 
     name lfoot
     direction 0.0927455 -0.254816 0.962532   
     length 2.14078   
     axis -90 7.62852e-016 20   XYZ
    dof rx rz
    limits (-45.0 90.0)
           (-70.0 20.0)
  end
  begin
     id 5 
     name ltoes
     direction 1.53556e-011 -4.21949e-011 1   
     length 1.07182   
     axis -90 7.62852e-016 20   XYZ
    dof rx
    limits (-90.0 20.0)
  end
  begin
     id 6 
     name rhipjoint
     direction -0.659892 -0.738223 0.139888   
     length 2.59263  
     axis 0 0 0  XYZ 
  end
  begin
     id 7 
     name rfemur
     direction -0.34202 -0.939693 0   
     length 7.58575   
     axis 0 0 -20   XYZ
    dof rx ry rz
    limits (-160.0 20.0)
           (-70.0 70.0)
           (-70.0 60.0)
  end
  begin
     id 8 
     name rtibia
     direction -0.34202 -0.939693 0   
     length 8.19358   
     axis 0 0 -20   XYZ
    dof rx
    limits (-10.0 170.0)
 end
 begin
     id 9 
     name rfoot
     direction -0.0856543 -0.235333 0.968133   
     length 2.13415  
     axis -90 -7.62852e-016 -20   XYZ
    dof rx rz
    limits (-45.0 90.0)
           (-20.0 70.0)
  end
  begin
     id 10 
     name rtoes
     direction -1.53551e-011 -4.21811e-011 1   
     length 1.07055   
     axis -90 -7.62852e-016 -20   XYZ
    dof rx
    limits (-90.0 20.0)
  end
  begin
     id 11 
     name lowerback
     direction 0.025219 0.998394 -0.0507326   
     length 1.91844   
     axis 0 0 0   XYZ
    dof rx ry rz
    limits (-20.0 45.0)
           (-30.0 30.0)
           (-30.0 30.0)
  end
  begin
     id 12 
     name upperback
     direction 0.0213103 0.99967 -0.0143101   
     length 1.92246   
     axis 0 0 0   XYZ
    dof rx ry rz
    limits (-20.0 45.0)
           (-30.0 30.0)
           (-30.0 30.0)
  end
  begin
     id 13 
     name thorax
     direction 0.00920974 0.99991 0.00971518   
     length 1.92239   
     axis 0 0 0   XYZ
    dof rx ry rz
    limits (-20.0 45.0)
           (-30.0 30.0)
           (-30.0 30.0)
  end
  begin
     id 14 
     name lowerneck
     direction 0.0598257 0.997249 0.0437612   
     length 3.13679   
     axis 0 0 0   XYZ
    dof rx ry rz
    limits (-20.0 45.0)
           (-30.0 30.0)
           (-30.0 30.0)
  end
  begin
     id 15 
     name upperneck
     direction -0.035342 0.999338 0.00863891   
     length 3.16283   
     axis 0 0 0   XYZ
    dof rx ry rz
    limits (-20.0 45.0)
           (-30.0 30.0)
           (-30.0 30.0)
  end
  begin
     id 16
     name head
     direction 0.37144 0.811566 0.450991  
     length 1.2838  
     axis 0 0 0   XYZ
    dof rx ry rz
    limits (-20.0 45.0)
           (-30.0 30.0)
           (-30.0 30.0)
  end
  begin
     id 17 
     name lclavicle
     direction 0.961094 0.274654 -0.0293862  
     length 3.63466  
     axis 0 0 0   XYZ
    dof ry rz
    limits (-20.0 10.0)
           (0.0 20.0)
  end
  begin
     id 18 
     name lhumerus
     direction 1 -4.48963e-011 1.10303e-027   
     length 5.12842   
     axis 180 -30 -90   XYZ
    dof rx ry rz
    limits (-60.0 90.0)
           (-90.0 90.0)
           (-90.0 90.0)
  end
  begin
     id 19
     name lradius
     direction 1 -4.48968e-011 4.13199e-027   
     length 3.47396   
     axis 180 -30 -90   XYZ
    dof rx
    limits (-10.0 170.0)
  end
  begin
     id 20
     name lwrist
     direction 1 -4.48948e-011 9.12708e-027   
     length 1.73698   
     axis -6.84618e-015 90 90   XYZ
    dof ry
    limits (-180.0 0.0)
 end
  begin
     id 21 
     name lhand
     direction 1 -4.49057e-011 1.82749e-026   
     length 0.728607   
     axis -1.16502e-014 90 90   XYZ
    dof rx rz
    limits (-90.0 90.0)
           (-45.0 45.0)
  end
  begin
     id 22 
     name lfingers
     direction 1 -4.48912e-011 3.64949e-026   
     length 0.587422   
     axis -2.33008e-014 90 90   XYZ
    dof rx
    limits (0.0 90.0)
  end
  begin
     id 23
     name lthumb
     direction 0.707107 -6.34995e-011 0.707107   
     length 0.843424   
     axis -90 45 5.69224e-014   XYZ
    dof rx rz
    limits (-45.0 45.0)
           (-45.0 45.0)
  end
  begin
     id 24 
     name rclavicle
     direction -0.90514 0.421881 -0.0523369   
     length 3.57139  
     axis 0 0 0   XYZ 
    dof ry rz
    limits (-10.0 20.0)
           (-20.0 0.0)
  end
  begin
     id 25 
     name rhumerus
     direction -1 -4.48954e-011 -1.76662e-027  
     length 5.48477   
     axis 180 30 90   XYZ
    dof rx ry rz
    limits (-90.0 60.0)
           (-90.0 90.0)
           (-90.0 90.0)
  end
  begin
     id 26 
     name rradius
     direction -1 -4.48982e-011 1.26841e-027   
     length 3.47856   
     axis 180 30 90   XYZ
    dof rx
    limits (-10.0 170.0)
  end
  begin
     id 27 
     name rwrist
     direction -1 -4.49037e-011 9.13554e-027   
     length 1.73928   
     axis -6.84618e-015 -90 -90   XYZ
    dof ry
    limits (-180.0 0.0)
  end
  begin
     id 28
     name rhand
     direction -1 -4.48871e-011 1.82397e-026   
     length 0.709974   
     axis -1.16502e-014 -90 -90   XYZ
    dof rx rz
    limits (-90.0 90.0)
           (-45.0 45.0)
  end
  begin
     id 29
     name rfingers
     direction -1 -4.48994e-011 3.65258e-026   
     length 0.572399   
     axis -2.33008e-014 -90 -90   XYZ
    dof rx
    limits (0.0 90.0)
  end
  begin
     id 30
     name rthumb
     direction -0.707107 -6.34861e-011 0.707107   
     length 0.821855   
     axis -90 -45 -5.69224e-014   XYZ
    dof rx rz
    limits (-45.0 45.0)
           (-45.0 45.0)
  end
:hierarchy
  begin
    root lhipjoint rhipjoint lowerback
    lhipjoint lfemur
    lfemur ltibia
    ltibia lfoot
    lfoot ltoes
    rhipjoint rfemur
    rfemur rtibia
    rtibia rfoot
    rfoot rtoes
    lowerback upperback
    upperback thorax
    thorax lowerneck lclavicle rclavicle
    lowerneck upperneck
    upperneck head
    lclavicle lhumerus
    lhumerus lradius
    lradius lwrist
    lwrist lhand lthumb
    lhand lfingers
    rclavicle rhumerus
    rhumerus rradius
    rradius rwrist
    rwrist rhand rthumb
    rhand rfingers
  end

#!OML:ASF F:\VICON\USERDATA\INSTALL\Justin1\Justin1.ASF
:FULLY-SPECIFIED
:DEGREES
2265
root 0.286992 18.1943 -4.02983 2.40962 2.22837 -3.39935
lowerback 1.40061 -0.163484 2.27528
upperback -1.76441 -0.0748439 3.49143
thorax -2.59828 -0.0444041 2.31847
lowerneck -13.7141 1.38313 -1.29311
upperneck 28.1267 4.50178 -7.14489
head 11.615 1.01711 -1.79036
rclavicle 7.31776e-015 -3.49861e-014
rhumerus 31.1174 60.0823 -50.653
rradius 79.429
rwrist 26.0358
rhand -28.704 43.4275
rfingers 7.12502
rthumb -2.06582 13.4578
lclavicle 7.31776e-015 -3.49861e-014
lhumerus 24.2908 -42.368 73.8331
lradius 26.1627
lwrist -33.0721
lhand -13.2645 23.4554
lfingers 7.12502
lthumb 12.8383 53.0406
rfemur -15.2041 8.67744 26.9597
rtibia 33.9583
rfoot -17.3757 -13.4822
rtoes 27.0415
lfemur -13.7688 -9.10838 -19.4845
ltibia 30.8282
lfoot -17.0323 8.87686
ltoes 6.04455
2266
root 0.281797 18.1925 -4.04132 2.50608 2.29036 -3.84643
lowerback 1.38783 -0.142138 2.68764
upperback -1.8021 -0.0314586 3.60482
thorax -2.632 -0.0296067 2.20317
lowerneck -13.7082 1.2592 -1.3827
upperneck 27.6852 4.27486 -7.03548
head 11.4285 0.932682 -1.75722
rclavicle 3.09359e-015 3.57812e-014
rhumerus 33.1259 60.078 -49.2176
rradius 78.3206
rwrist 26.486
rhand -28.8216 44.8185
rfingers 7.12502
rthumb -2.17937 14.8499
lclavicle 3.09359e-015 3.57812e-014
lhumerus 25.54 -42.5952 73.1144
lradius 26.1378
lwrist -33.2108
lhand -12.6551 22.9389
lfingers 7.12502
lthumb 13.4257 52.4862
rfemur -15.3102 8.80054 27.4548
rtibia 33.8173
rfoot -17.2922 -13.5739
rtoes 27.1382
lfemur -14.085 -9.09739 -18.9275
ltibia 31.0484
lfoot -17.0537 8.83531
ltoes 5.93477
2267
root 0.272496 18.1847 -4.06304 2.71937 2.45496 -4.73318
lowerback 1.3435 -0.133178 3.51542
upperback -1.87802 0.00957824 3.83147
thorax -2.68825 -0.0234334 1.97314
lowerneck -13.8389 1.12386 -1.27204
upperneck 27.3488 4.06768 -7.17241
head 11.3231 0.841111 -1.84858
rclavicle -4.87333e-015 -4.37326e-014
rhumerus 34.734 59.8265 -48.2873
rradius 77.4582
rwrist 25.5395
rhand -26.7815 44.8803
rfingers 7.12502
rthumb -0.20904 14.9007
lclavicle -4.87333e-015 -4.37326e-014
lhumerus 26.861 -42.8788 72.2773
lradius 26.211
lwrist -33.1245
lhand -12.4232 22.7134
lfingers 7.12502
lthumb 13.6492 52.2459
rfemur -15.6414 8.96055 28.4333
rtibia 33.6976
rfoot -17.0878 -13.7919
rtoes 27.0804
lfemur -14.621 -9.02603 -17.8093
ltibia 31.2067
lfoot -16.9829 8.62583
ltoes 5.57389
2268
root 0.27026 18.1838 -4.06413 2.73769 2.5614 -4.86324
lowerback 1.27722 -0.120989 3.64115
upperback -1.8931 0.0259306 3.83451
thorax -2.66684 -0.0175894 1.9052
lowerneck -14.01 1.02041 -1.25036
upperneck 27.2516 3.89884 -7.12727
head 11.3125 0.771503 -1.85679
rclavicle 1.14301e-015 -2.22639e-014
rhumerus 35.9447 59.7616 -47.5832
rradius 76.3769
rwrist 26.0062
rhand -27.2637 43.9682
rfingers 7.12502
rthumb -0.674751 13.9895
lclavicle 1.14301e-015 -2.22639e-014
lhumerus 27.9125 -43.1033 71.6889
lradius 26.3092
lwrist -33.0895
lhand -12.3183 22.7705
lfingers 7.12502
lthumb 13.7503 52.2961
rfemur -15.636 8.96284 28.5842
rtibia 33.6219
rfoot -17.0509 -13.8607
rtoes 27.2415
lfemur -14.7112 -8.99573 -17.6417
ltibia 31.2815
lfoot -17.0368 8.54667
ltoes 5.54691
2269
root 0.274526 18.1916 -4.04324 2.53757 2.65818 -4.16758
lowerback 1.18133 -0.130221 2.99914
upperback -1.8067 -0.0183172 3.60048
thorax -2.52116 -0.0283992 2.02266
lowerneck -14.1522 0.89795 -1.48575
upperneck 27.1639 3.6942 -6.81936
head 11.2883 0.691643 -1.72929
rclavicle -2.43511e-015 -4.29375e-014
rhumerus 36.7184 59.6569 -47.3281
rradius 75.6013
rwrist 25.6216
rhand -25.752 43.4385
rfingers 7.12502
rthumb 0.785266 13.4602
lclavicle -2.43511e-015 -4.29375e-014
lhumerus 28.9761 -43.5812 70.8865
lradius 26.5021
lwrist -32.8321
lhand -11.9774 22.6433
lfingers 7.12502
lthumb 14.0788 52.1464
rfemur -15.2499 8.71736 27.8472
rtibia 33.625
rfoot -17.1985 -13.7642
rtoes 27.259
lfemur -14.2905 -9.14624 -18.4994
ltibia 31.2086
lfoot -17.1696 8.57955
ltoes 5.77543
